HIERARCHY
ROOT hip
{
  OFFSET 0.0 0.0 0.0
  CHANNELS 6 Xposition Yposition Zposition Zrotation Yrotation Xrotation
  JOINT abdomen
  {
    OFFSET 0.0 20.6881 -0.73152
    CHANNELS 3 Zrotation Xrotation Yrotation
    JOINT chest
    {
      OFFSET 0.0 11.7043 -0.48768
      CHANNELS 3 Zrotation Xrotation Yrotation
      JOINT neck
      {
        OFFSET 0.0 22.1894 -2.19456
        CHANNELS 3 Zrotation Xrotation Yrotation
        JOINT head
        {
          OFFSET -0.24384 7.07133 1.2192
          CHANNELS 3 Zrotation Xrotation Yrotation
          JOINT leftEye
          {
            OFFSET 4.14528 8.04674 8.04672
            CHANNELS 3 Zrotation Xrotation Yrotation
            End Site
            {
              OFFSET 1.0 0.0 0.0
            }
          }
          JOINT rightEye
          {
            OFFSET -3.6576 8.04674 8.04672
            CHANNELS 3 Zrotation Xrotation Yrotation
            End Site
            {
              OFFSET 1.0 0.0 0.0
            }
          }
        }
      }
      JOINT rCollar
      {
        OFFSET -2.68224 19.2634 -4.8768
        CHANNELS 3 Zrotation Xrotation Yrotation
        JOINT rShldr
        {
          OFFSET -8.77824 -1.95073 1.46304
          CHANNELS 3 Zrotation Xrotation Yrotation
          JOINT rForeArm
          {
            OFFSET -28.1742 -1.7115 0.48768
            CHANNELS 3 Zrotation Xrotation Yrotation
            JOINT rHand
            {
              OFFSET -22.5879 0.773209 7.07136
              CHANNELS 3 Zrotation Xrotation Yrotation
              JOINT rThumb1
              {
                OFFSET -1.2192 -0.487915 3.41376
                CHANNELS 3 Zrotation Xrotation Yrotation
                JOINT rThumb2
                {
                  OFFSET -3.37035 -0.52449 3.41376
                  CHANNELS 3 Zrotation Xrotation Yrotation
                  End Site
                  {
                    OFFSET -1.78271 -1.18214 1.43049
                  }
                }
              }
              JOINT rIndex1
              {
                OFFSET -7.75947 0.938293 5.60832
                CHANNELS 3 Zrotation Xrotation Yrotation
                JOINT rIndex2
                {
                  OFFSET -2.54057 -0.884171 1.56538
                  CHANNELS 3 Zrotation Xrotation Yrotation
                  End Site
                  {
                    OFFSET -1.62519 -0.234802 1.16502
                  }
                }
              }
              JOINT rMid1
              {
                OFFSET -8.24714 1.18213 3.41376
                CHANNELS 3 Zrotation Xrotation Yrotation
                JOINT rMid2
                {
                  OFFSET -3.10165 -0.590103 1.0647
                  CHANNELS 3 Zrotation Xrotation Yrotation
                  End Site
                  {
                    OFFSET -2.48547 -0.328903 0.83742
                  }
                }
              }
              JOINT rRing1
              {
                OFFSET -8.82822 0.546677 1.51678
                CHANNELS 3 Zrotation Xrotation Yrotation
                JOINT rRing2
                {
                  OFFSET -2.60934 -0.819778 -0.0198488
                  CHANNELS 3 Zrotation Xrotation Yrotation
                  End Site
                  {
                    OFFSET -2.33842 -0.294052 0.168128
                  }
                }
              }
              JOINT rPinky1
              {
                OFFSET -8.27202 -0.0477905 -0.4584
                CHANNELS 3 Zrotation Xrotation Yrotation
                JOINT rPinky2
                {
                  OFFSET -1.82734 -0.647385 -0.700984
                  CHANNELS 3 Zrotation Xrotation Yrotation
                  End Site
                  {
                    OFFSET -1.69225 -0.51767 -0.607171
                  }
                }
              }
            }
          }
        }
      }
      JOINT lCollar
      {
        OFFSET 2.68224 19.2634 -4.8768
        CHANNELS 3 Zrotation Xrotation Yrotation
        JOINT lShldr
        {
          OFFSET 8.77824 -1.95073 1.46304
          CHANNELS 3 Zrotation Xrotation Yrotation
          JOINT lForeArm
          {
            OFFSET 28.1742 -1.7115 0.48768
            CHANNELS 3 Zrotation Xrotation Yrotation
            JOINT lHand
            {
              OFFSET 22.5879 0.773209 7.07136
              CHANNELS 3 Zrotation Xrotation Yrotation
              JOINT lThumb1
              {
                OFFSET 1.2192 -0.487915 3.41376
                CHANNELS 3 Zrotation Xrotation Yrotation
                JOINT lThumb2
                {
                  OFFSET 3.37035 -0.52449 3.41376
                  CHANNELS 3 Zrotation Xrotation Yrotation
                  End Site
                  {
                    OFFSET 1.78271 -1.18214 1.43049
                  }
                }
              }
              JOINT lIndex1
              {
                OFFSET 7.75947 0.938293 5.60832
                CHANNELS 3 Zrotation Xrotation Yrotation
                JOINT lIndex2
                {
                  OFFSET 2.54057 -0.884171 1.56538
                  CHANNELS 3 Zrotation Xrotation Yrotation
                  End Site
                  {
                    OFFSET 1.62519 -0.234802 1.16502
                  }
                }
              }
              JOINT lMid1
              {
                OFFSET 8.24714 1.18213 3.41376
                CHANNELS 3 Zrotation Xrotation Yrotation
                JOINT lMid2
                {
                  OFFSET 3.10165 -0.590103 1.0647
                  CHANNELS 3 Zrotation Xrotation Yrotation
                  End Site
                  {
                    OFFSET 2.48547 -0.328903 0.83742
                  }
                }
              }
              JOINT lRing1
              {
                OFFSET 8.82822 0.546677 1.51678
                CHANNELS 3 Zrotation Xrotation Yrotation
                JOINT lRing2
                {
                  OFFSET 2.60934 -0.819778 -0.0198488
                  CHANNELS 3 Zrotation Xrotation Yrotation
                  End Site
                  {
                    OFFSET 2.33842 -0.294052 0.168128
                  }
                }
              }
              JOINT lPinky1
              {
                OFFSET 8.27202 -0.0477905 -0.4584
                CHANNELS 3 Zrotation Xrotation Yrotation
                JOINT lPinky2
                {
                  OFFSET 1.82734 -0.647385 -0.700984
                  CHANNELS 3 Zrotation Xrotation Yrotation
                  End Site
                  {
                    OFFSET 1.69225 -0.51767 -0.607171
                  }
                }
              }
            }
          }
        }
      }
    }
  }
  JOINT rButtock
  {
    OFFSET -8.77824 4.35084 1.2192
    CHANNELS 3 Zrotation Xrotation Yrotation
    JOINT rThigh
    {
      OFFSET 0.0 -1.70687 -2.19456
      CHANNELS 3 Zrotation Xrotation Yrotation
      JOINT rShin
      {
        OFFSET 0.0 -36.8199 0.73152
        CHANNELS 3 Zrotation Xrotation Yrotation
        JOINT rFoot
        {
          OFFSET 0.73152 -45.1104 -5.12064
          CHANNELS 3 Zrotation Xrotation Yrotation
          End Site
          {
            OFFSET -1.1221 -3.69964 12.103
          }
        }
      }
    }
  }
  JOINT lButtock
  {
    OFFSET 8.77824 4.35084 1.2192
    CHANNELS 3 Zrotation Xrotation Yrotation
    JOINT lThigh
    {
      OFFSET 0.0 -1.70687 -2.19456
      CHANNELS 3 Zrotation Xrotation Yrotation
      JOINT lShin
      {
        OFFSET 0.0 -36.8199 0.73152
        CHANNELS 3 Zrotation Xrotation Yrotation
        JOINT lFoot
        {
          OFFSET -0.73152 -45.1104 -5.12064
          CHANNELS 3 Zrotation Xrotation Yrotation
          End Site
          {
            OFFSET 1.1221 -3.69964 12.103
          }
        }
      }
    }
  }
}
MOTION
Frames: 7
Frame Time: 0.00833333
6.62321 82.3892 -69.5223 2.4067 -3.2357 5.2225 -1.5149 12.9062 -2.10148 6.76103 -4.19098 -0.388433 7.16446 -1.51561 3.34827 -16.045 -7.08671 3.47569 -0.0 0.0 0.0 -0.0 0.0 0.0 1.88059e-14 -2.22551e-14 5.73494e-14 19.2505 -22.9077 -14.1605 -17.6417 -10.3066 33.2214 -0.0432614 -5.92575 -0.835822 3.11002e-10 1.62679e-10 7.09095e-10 5.3373e-10 2.84905e-10 1.22961e-09 3.11003e-10 1.62683e-10 7.09089e-10 7.73091 5.47488 0.417314 3.11001e-10 1.62685e-10 7.09095e-10 2.90554 0.965183 0.102902 3.11011e-10 1.62685e-10 7.0909e-10 10.2786 0.731801 0.0259123 3.10997e-10 1.62687e-10 7.09092e-10 2.22167 -0.733487 -0.20892 1.89645e-14 -2.22709e-14 5.71009e-14 -37.8801 -20.6408 7.65582 17.6987 -10.3663 -33.3477 0.0767261 -7.87788 1.11426 2.61898e-10 -5.39212e-10 4.9776e-10 4.49924e-10 -9.37297e-10 8.64812e-10 2.61888e-10 -5.39212e-10 4.97763e-10 -7.73091 5.47488 -0.417314 2.61897e-10 -5.39211e-10 4.9776e-10 -2.90554 0.965183 -0.102902 2.61892e-10 -5.39212e-10 4.9775e-10 -10.2786 0.731801 -0.0259123 2.61903e-10 -5.3921e-10 4.97741e-10 -2.22167 -0.733487 0.20892 -2.03217e-16 0.0 -3.88251e-19 -16.2589 -39.7441 -6.71831 -0.181783 29.8981 0.454536 -0.904444 1.10645 -7.22659 2.03217e-16 0.0 3.88251e-19 -0.449121 0.686047 -5.61667 0.0101479 16.5126 -0.455152 4.31237 -8.67743 19.104
6.60747 82.3954 -69.0766 2.6059 -2.9974 5.3096 -1.3322 12.8437 -2.17204 6.82691 -4.15325 -0.402021 7.06734 -1.49723 3.28672 -16.2378 -7.08777 3.37339 -0.0 0.0 0.0 -0.0 0.0 0.0 1.62151e-14 -2.55616e-14 6.8121e-14 19.4011 -22.9491 -14.2171 -17.6143 -10.2779 33.1604 -0.0432275 -5.92327 -0.83547 7.80868e-10 -1.87514e-10 7.32689e-10 1.3471e-09 -3.21599e-10 1.27163e-09 7.8087e-10 -1.87512e-10 7.32681e-10 7.73091 5.47488 0.417314 7.80868e-10 -1.8751e-10 7.3269e-10 2.90554 0.965183 0.102902 7.80876e-10 -1.8751e-10 7.32684e-10 10.2786 0.731801 0.0259123 7.80862e-10 -1.87508e-10 7.32686e-10 2.22167 -0.733487 -0.20892 1.63588e-14 -2.55741e-14 6.78667e-14 -37.6367 -20.66 7.67728 17.7253 -10.3943 -33.4068 0.0775165 -7.918 1.12001 -3.9867e-11 -1.14561e-09 6.759e-10 -7.40859e-11 -1.98865e-09 1.17228e-09 -3.98758e-11 -1.14561e-09 6.75906e-10 -7.73091 5.47488 -0.417314 -3.98678e-11 -1.1456e-09 6.75901e-10 -2.90554 0.965183 -0.102902 -3.98743e-11 -1.14561e-09 6.75893e-10 -10.2786 0.731801 -0.0259123 -3.98613e-11 -1.1456e-09 6.75883e-10 -2.22167 -0.733487 0.20892 -2.03217e-16 0.0 -3.88251e-19 -16.2554 -39.6986 -6.19587 -0.173608 29.1777 0.43979 -0.876165 1.23876 -7.20043 2.03217e-16 0.0 3.88251e-19 -0.493785 1.14935 -5.59538 0.00912 15.9537 -0.441598 4.16175 -8.55026 18.6647
6.59153 82.3811 -68.6126 2.8285 -2.7537 5.3721 -1.14415 12.779 -2.23107 6.8945 -4.1235 -0.411986 6.95147 -1.46141 3.21442 -16.4467 -7.07674 3.25796 -0.0 0.0 0.0 -0.0 0.0 0.0 1.508e-14 -3.71687e-14 8.54774e-14 19.526 -22.9963 -14.2934 -17.5826 -10.2448 33.0901 -0.0428188 -5.89543 -0.831515 1.54815e-09 -7.21439e-10 6.91748e-10 2.67547e-09 -1.24654e-09 1.20249e-09 1.54816e-09 -7.2144e-10 6.91736e-10 7.73091 5.47488 0.417314 1.54815e-09 -7.2144e-10 6.91749e-10 2.90554 0.965183 0.102902 1.54816e-09 -7.21439e-10 6.91743e-10 10.2786 0.731801 0.0259123 1.54814e-09 -7.21436e-10 6.91747e-10 2.22167 -0.733487 -0.20892 1.51612e-14 -3.71757e-14 8.52196e-14 -37.3768 -20.6734 7.70234 17.7547 -10.4253 -33.4723 0.0782745 -7.95634 1.12551 -5.2899e-10 -1.95548e-09 8.58296e-10 -9.22486e-10 -3.3921e-09 1.48622e-09 -5.28997e-10 -1.95548e-09 8.58309e-10 -7.73091 5.47488 -0.417314 -5.2899e-10 -1.95548e-09 8.58298e-10 -2.90554 0.965183 -0.102902 -5.28999e-10 -1.95548e-09 8.58294e-10 -10.2786 0.731801 -0.0259123 -5.28984e-10 -1.95547e-09 8.58284e-10 -2.22167 -0.733487 0.20892 -2.03217e-16 0.0 -3.88251e-19 -16.2907 -39.6391 -5.76686 -0.167877 28.6813 0.43038 -0.862317 1.30294 -7.21472 2.03217e-16 0.0 3.88251e-19 -0.544676 1.60106 -5.5634 0.00794631 15.468 -0.430136 4.01323 -8.4439 18.1925
6.56813 82.3521 -68.1326 3.0508 -2.5019 5.4163 -0.956163 12.709 -2.28421 6.9631 -4.0936 -0.420538 6.83011 -1.41984 3.1374 -16.6718 -7.05281 3.13634 -0.0 0.0 0.0 -0.0 0.0 0.0 1.07159e-14 -4.52969e-14 9.71187e-14 19.6386 -23.0446 -14.3861 -17.5515 -10.2125 33.0215 -0.0423638 -5.86421 -0.82708 2.19788e-09 -1.16103e-09 6.01446e-10 3.8006e-09 -2.00829e-09 1.04754e-09 2.19788e-09 -1.16104e-09 6.01432e-10 7.73091 5.47488 0.417314 2.19788e-09 -1.16104e-09 6.01449e-10 2.90554 0.965183 0.102902 2.19788e-09 -1.16104e-09 6.01442e-10 10.2786 0.731801 0.0259123 2.19787e-09 -1.16103e-09 6.01449e-10 2.22167 -0.733487 -0.20892 1.07194e-14 -4.52988e-14 9.68621e-14 -37.0981 -20.686 7.73354 17.7871 -10.4596 -33.5445 0.07899 -7.99235 1.13067 -9.60518e-10 -2.55763e-09 9.55622e-10 -1.67046e-09 -4.43519e-09 1.65288e-09 -9.60523e-10 -2.55763e-09 9.55641e-10 -7.73091 5.47488 -0.417314 -9.60517e-10 -2.55763e-09 9.55625e-10 -2.90554 0.965183 -0.102902 -9.60529e-10 -2.55763e-09 9.55624e-10 -10.2786 0.731801 -0.0259123 -9.60511e-10 -2.55763e-09 9.55615e-10 -2.22167 -0.733487 0.20892 -2.03217e-16 0.0 -3.88251e-19 -16.3498 -39.5629 -5.38818 -0.164347 28.3875 0.425279 -0.848332 1.36351 -7.1988 2.03217e-16 0.0 3.88251e-19 -0.603579 2.01905 -5.51861 0.00698467 15.0973 -0.421385 3.87102 -8.35778 17.7039
6.54204 82.3066 -67.635 3.2928 -2.242 5.436 -0.773688 12.6307 -2.33706 7.03203 -4.05543 -0.429884 6.71643 -1.38422 3.06169 -16.9135 -7.01516 3.01547 -0.0 0.0 0.0 -0.0 0.0 0.0 -1.56206e-15 -3.81667e-14 9.07452e-14 19.7523 -23.089 -14.4918 -17.5261 -10.186 32.9654 -0.0421805 -5.85159 -0.825287 2.31507e-09 -1.22823e-09 4.76959e-10 4.00425e-09 -2.12524e-09 8.3216e-10 2.31507e-09 -1.22824e-09 4.76943e-10 7.73091 5.47488 0.417314 2.31507e-09 -1.22824e-09 4.76962e-10 2.90554 0.965183 0.102902 2.31507e-09 -1.22824e-09 4.76957e-10 10.2786 0.731801 0.0259123 2.31506e-09 -1.22823e-09 4.76966e-10 2.22167 -0.733487 -0.20892 -1.6186e-15 -3.81669e-14 9.04967e-14 -36.7984 -20.7026 7.77342 17.8228 -10.4974 -33.6239 0.0796528 -8.0255 1.13542 -1.0895e-09 -2.54088e-09 8.78552e-10 -1.89321e-09 -4.40548e-09 1.51852e-09 -1.0895e-09 -2.54088e-09 8.78574e-10 -7.73091 5.47488 -0.417314 -1.0895e-09 -2.54088e-09 8.78555e-10 -2.90554 0.965183 -0.102902 -1.08951e-09 -2.54088e-09 8.78557e-10 -10.2786 0.731801 -0.0259123 -1.08949e-09 -2.54088e-09 8.78549e-10 -2.22167 -0.733487 0.20892 -2.03217e-16 0.0 -3.88251e-19 -16.418 -39.4665 -5.01689 -0.162919 28.275 0.423556 -0.820103 1.48509 -7.08204 2.03217e-16 0.0 3.88251e-19 -0.672237 2.3812 -5.45887 0.00657752 14.8835 -0.41596 3.73919 -8.29151 17.2153
6.50952 82.2456 -67.122 3.5434 -1.9668 5.4385 -0.607472 12.5413 -2.39011 7.1063 -4.00402 -0.440658 6.62017 -1.36727 2.98967 -17.1808 -6.96203 2.89556 -0.0 0.0 0.0 -0.0 0.0 0.0 -2.90437e-14 -3.07918e-15 5.26395e-14 19.8614 -23.1252 -14.6158 -17.5077 -10.1669 32.9249 -0.0423432 -5.86278 -0.826876 1.52022e-09 -6.5877e-10 2.80061e-10 2.62983e-09 -1.1399e-09 4.8925e-10 1.52023e-09 -6.58776e-10 2.80046e-10 7.73091 5.47488 0.417314 1.52022e-09 -6.58776e-10 2.80065e-10 2.90554 0.965183 0.102902 1.52023e-09 -6.58777e-10 2.80061e-10 10.2786 0.731801 0.0259123 1.52021e-09 -6.58772e-10 2.80071e-10 2.22167 -0.733487 -0.20892 -2.91381e-14 -3.08386e-15 5.24147e-14 -36.4757 -20.7266 7.81693 17.8603 -10.5373 -33.7077 0.0801859 -8.05195 1.13921 -7.13646e-10 -1.45274e-09 4.89397e-10 -1.2394e-09 -2.51857e-09 8.45281e-10 -7.13649e-10 -1.45274e-09 4.89419e-10 -7.73091 5.47488 -0.417314 -7.13644e-10 -1.45274e-09 4.894e-10 -2.90554 0.965183 -0.102902 -7.13658e-10 -1.45273e-09 4.89402e-10 -10.2786 0.731801 -0.0259123 -7.1364e-10 -1.45273e-09 4.89396e-10 -2.22167 -0.733487 0.20892 -2.03217e-16 0.0 -3.88251e-19 -16.511 -39.3453 -4.6814 -0.164065 28.3849 0.426068 -0.770344 1.69812 -6.78783 2.03217e-16 0.0 3.88251e-19 -0.759092 2.68656 -5.37792 0.00652012 14.834 -0.414543 3.62388 -8.26595 16.7298
6.4738 82.1735 -66.5902 3.816 -1.6811 5.4184 -0.451535 12.443 -2.4407 7.18453 -3.94464 -0.451666 6.53218 -1.35955 2.91785 -17.4704 -6.89435 2.77349 -0.0 0.0 0.0 -0.0 0.0 0.0 -6.72169e-14 5.04972e-14 -7.15935e-15 19.9618 -23.1567 -14.7578 -17.4937 -10.1525 32.8942 -0.0426865 -5.88627 -0.830213 1.24278e-10 3.35678e-10 1.6748e-11 2.15422e-10 5.81202e-10 2.99019e-11 1.24287e-10 3.35674e-10 1.67363e-11 7.73091 5.47488 0.417314 1.24278e-10 3.35675e-10 1.6753e-11 2.90554 0.965183 0.102902 1.24284e-10 3.35673e-10 1.67516e-11 10.2786 0.731801 0.0259123 1.24266e-10 3.35678e-10 1.67643e-11 2.22167 -0.733487 -0.20892 -6.7343e-14 5.04841e-14 -7.34882e-15 -36.1318 -20.7548 7.86465 17.9001 -10.5795 -33.7967 0.0806159 -8.07322 1.14226 -9.25682e-12 3.73216e-10 -1.26246e-10 -1.49483e-11 6.47436e-10 -2.19213e-10 -9.26087e-12 3.73217e-10 -1.26226e-10 -7.73091 5.47488 -0.417314 -9.25532e-12 3.73219e-10 -1.26244e-10 -2.90554 0.965183 -0.102902 -9.26881e-12 3.7322e-10 -1.26242e-10 -10.2786 0.731801 -0.0259123 -9.25288e-12 3.73221e-10 -1.26246e-10 -2.22167 -0.733487 0.20892 -2.03217e-16 0.0 -3.88251e-19 -16.6303 -39.2028 -4.39154 -0.167657 28.7131 0.432933 -0.710618 1.96401 -6.37311 2.03217e-16 0.0 3.88251e-19 -0.860796 2.94528 -5.27866 0.0066273 14.9276 -0.416592 3.51986 -8.27474 16.2388
